<svg width="50" height="50" viewBox="0 0 50 50" fill="none" xmlns="http://www.w3.org/2000/svg">
<circle cx="25" cy="25" r="23.5" stroke="#816C61" stroke-width="3"/>
<path d="M12.8716 17.8345L12.8714 17.8348L12.8712 17.8349L12.8476 17.8611L12.8214 17.883L12.8213 17.8831L12.8212 17.8831L12.8186 17.8855L12.8008 17.9012C12.7838 17.9165 12.7568 17.9414 12.7213 17.976C12.6503 18.0453 12.5455 18.1534 12.4193 18.3012C12.1669 18.5969 11.8296 19.0505 11.5054 19.6695C10.8591 20.9033 10.2573 22.8076 10.4979 25.4547C10.7399 28.1161 11.5837 29.91 12.3502 31.0302C12.7343 31.5917 13.1011 31.9868 13.367 32.2383C13.5 32.3641 13.6077 32.4539 13.6796 32.5106C13.7156 32.539 13.7426 32.559 13.7593 32.5712L13.7766 32.5834L13.7773 32.584L13.7778 32.5843L13.7782 32.5845L13.7787 32.5849L13.7791 32.5851L13.8377 32.6242L13.8815 32.6768C13.8815 32.6768 13.8816 32.6769 13.8816 32.6769C13.8833 32.6788 13.8874 32.6833 13.894 32.6904C13.9076 32.7048 13.9319 32.7296 13.9681 32.7634C14.0405 32.831 14.1609 32.9347 14.339 33.063C14.6951 33.3194 15.2841 33.6751 16.1857 34.0358C17.9894 34.7572 21.049 35.5 26 35.5C30.9419 35.5 33.9921 34.6353 35.7886 33.7969C36.687 33.3776 37.2749 32.9636 37.6315 32.664C37.81 32.5141 37.9312 32.3923 38.0048 32.3122C38.0416 32.2721 38.0665 32.2424 38.0809 32.2247C38.088 32.2159 38.0925 32.21 38.0945 32.2074C38.0948 32.2071 38.0947 32.2072 38.0948 32.207L38.0956 32.2059L38.0956 32.2059L38.1335 32.1529L38.1854 32.1114C38.1853 32.1115 38.1853 32.1115 38.1854 32.1114C38.1854 32.1114 38.1859 32.1109 38.1861 32.1108C38.1863 32.1107 38.1862 32.1108 38.1866 32.1104L38.1867 32.1103L38.1992 32.0996C38.2119 32.0885 38.2332 32.0694 38.2617 32.0421C38.3188 31.9875 38.405 31.8998 38.511 31.7762C38.7228 31.5291 39.0137 31.138 39.3075 30.5796C39.8938 29.4657 40.5 27.6709 40.5 25C40.5 22.3291 39.8938 20.5343 39.3075 19.4204C39.0137 18.862 38.7228 18.4709 38.511 18.2238C38.405 18.1002 38.3188 18.0125 38.2617 17.9579C38.2332 17.9306 38.2119 17.9115 38.1992 17.9004L38.1867 17.8897L38.1866 17.8896C38.1862 17.8892 38.1863 17.8893 38.1861 17.8892C38.1859 17.8891 38.1854 17.8886 38.1854 17.8886C38.1853 17.8885 38.1853 17.8885 38.1854 17.8886L38.1557 17.8649L12.8716 17.8345ZM12.8716 17.8345L12.8725 17.8336L12.8798 17.8257C12.8868 17.8181 12.8982 17.8059 12.9139 17.7895C12.9453 17.7567 12.994 17.7068 13.0597 17.6424C13.1913 17.5136 13.3913 17.3266 13.6587 17.1006C14.1936 16.6486 14.9969 16.0419 16.0606 15.4341C18.1866 14.2192 21.3519 13 25.5 13C29.6481 13 32.8134 14.2192 34.9394 15.4341C36.0031 16.0419 36.8064 16.6486 37.3413 17.1006C37.6087 17.3266 37.8087 17.5136 37.9403 17.6424C38.006 17.7068 38.0547 17.7567 38.0861 17.7895C38.1018 17.8059 38.1132 17.8181 38.1202 17.8257L38.1275 17.8336L38.1284 17.8345L38.1286 17.8348L38.1288 17.8349L12.8716 17.8345Z" fill="#816C61" stroke="#816C61"/>
<path d="M38.5 11C38.5 11 39 11.5 39 14C39 16.5 38.5 17.5 38.5 17.5L31.5 13.5C31.5 13.5 32.5 12.5 35 11.5C37.5 10.5 38.5 11 38.5 11Z" fill="#816C61"/>
<path d="M12.5 11C12.5 11 12 11.5 12 14C12 16.5 12.5 17.5 12.5 17.5L19.5 13.5C19.5 13.5 19 12.5 16.5 11.5C14 10.5 12.5 11 12.5 11Z" fill="#816C61"/>
<path d="M21.5 34.5L31 35L30 36C30 36 30.5 36.2312 31 37.3656C31.5 38.5 31.5 39 31.5 39V47.5L32.5 48.5L25.5 49.5L19 48.5L19.5 47.5V39C19.5 39 19.5 38.5 20 37.3656C20.5 36.2312 21 36 21 36L21.5 34.5Z" fill="#816C61"/>
<path d="M7.99999 34.5C8.50001 34.5 9.49999 34.5 11 35.5C12.5 36.5 12.5 38 14 39C15.5 40 15.5 40 17 40C18.5 40 20 39 20 39V42.5C20 42.5 19 43 17 43C15 43 14.5 43 13 42C11.5 41 11 38 9.99999 37C8.99999 36 8.99999 36 7.99999 35.5C6.99999 35 7.49998 34.5 7.99999 34.5Z" fill="#816C61"/>
</svg>
