<svg width="49" height="49" viewBox="0 0 49 49" fill="none" xmlns="http://www.w3.org/2000/svg">
<rect x="1.5" y="1.5" width="46" height="46" rx="2.5" fill="#816C61" stroke="#816C61" stroke-width="3"/>
<path d="M11.045 14.36C9.845 14.36 8.85833 14.0133 8.085 13.32C7.33833 12.6 6.965 11.72 6.965 10.68C6.965 9.61333 7.33833 8.73333 8.085 8.04C8.85833 7.32 9.845 6.96 11.045 6.96C12.2183 6.96 13.1783 7.32 13.925 8.04C14.6983 8.73333 15.085 9.61333 15.085 10.68C15.085 11.72 14.6983 12.6 13.925 13.32C13.1783 14.0133 12.2183 14.36 11.045 14.36ZM14.445 16.68V39H7.605V16.68H14.445ZM33.0019 16.44C35.6152 16.44 37.6952 17.2933 39.2419 19C40.8152 20.68 41.6019 23 41.6019 25.96V39H34.8019V26.88C34.8019 25.3867 34.4152 24.2267 33.6419 23.4C32.8685 22.5733 31.8285 22.16 30.5219 22.16C29.2152 22.16 28.1752 22.5733 27.4019 23.4C26.6285 24.2267 26.2419 25.3867 26.2419 26.88V39H19.4019V16.68H26.2419V19.64C26.9352 18.6533 27.8685 17.88 29.0419 17.32C30.2152 16.7333 31.5352 16.44 33.0019 16.44Z" fill="#131B23"/>
</svg>
