<svg width="356" height="67" viewBox="0 0 356 67" fill="none" xmlns="http://www.w3.org/2000/svg">
<g filter="url(#filter0_dii_48_28)">
<path d="M105.764 7.56006C105.764 7.00777 106.211 6.56006 106.764 6.56006H135.531C136.083 6.56006 136.531 7.00777 136.531 7.56006V51.4801C136.531 52.0323 136.083 52.4801 135.531 52.4801H106.764C106.211 52.4801 105.764 52.0323 105.764 51.4801V7.56006Z" fill="#E9F1F4"/>
</g>
<g filter="url(#filter1_dii_48_28)">
<path d="M267.293 7.56006C267.293 7.00777 267.741 6.56006 268.293 6.56006H289.369C289.921 6.56006 290.369 7.00777 290.369 7.56006V51.4801C290.369 52.0323 289.921 52.4801 289.369 52.4801H268.293C267.741 52.4801 267.293 52.0323 267.293 51.4801V7.56006Z" fill="#E9F1F4"/>
</g>
<path d="M3.264 27.824V30.476L23.664 39.554V36.698L6.171 29.15L23.664 21.602V18.746L3.264 27.824ZM40.5442 11.3V13.85H51.7642V47H54.5182V13.85H65.7382V11.3H40.5442ZM69.2443 21.5H66.6943V47H69.2443V32.822C69.2443 26.702 72.9163 23.591 77.7613 23.591V21.143C73.6303 21.143 70.7743 22.928 69.2443 26.498V21.5ZM100.731 34.964C100.731 41.543 97.0586 45.113 91.8056 45.113C87.0626 45.113 84.3086 42.104 84.3086 37.361V21.5H81.7076V37.361C81.7076 43.532 85.5326 47.561 91.6016 47.561C95.8346 47.561 98.8946 45.776 100.731 42.155V47H103.281V21.5H100.731V34.964ZM157.104 47.561C163.683 47.561 169.599 44.144 172.506 38.84L170.109 37.463C167.712 42.002 162.663 44.96 157.104 44.96C152.463 44.96 148.689 43.43 145.68 40.421C142.722 37.361 141.243 33.587 141.243 29.15C141.243 24.713 142.722 20.939 145.68 17.93C148.689 14.87 152.463 13.34 157.104 13.34C159.909 13.34 162.459 14.003 164.754 15.38C167.049 16.706 168.834 18.491 170.007 20.684L172.404 19.307C170.925 16.706 168.783 14.615 166.08 13.085C163.377 11.504 160.368 10.739 157.104 10.739C151.749 10.739 147.312 12.524 143.793 16.094C140.274 19.613 138.54 23.999 138.54 29.15C138.54 34.301 140.274 38.687 143.793 42.257C147.312 45.776 151.749 47.561 157.104 47.561ZM189.489 47.561C193.212 47.561 196.323 46.286 198.924 43.736C201.525 41.135 202.851 37.973 202.851 34.25C202.851 30.527 201.525 27.365 198.924 24.815C196.323 22.214 193.212 20.939 189.489 20.939C185.766 20.939 182.553 22.214 179.952 24.815C177.351 27.365 176.076 30.527 176.076 34.25C176.076 37.973 177.351 41.135 179.952 43.736C182.553 46.286 185.766 47.561 189.489 47.561ZM181.788 41.951C179.697 39.86 178.677 37.259 178.677 34.25C178.677 31.241 179.697 28.64 181.788 26.549C183.879 24.458 186.48 23.387 189.489 23.387C192.498 23.387 195.048 24.458 197.139 26.549C199.23 28.64 200.25 31.241 200.25 34.25C200.25 37.259 199.23 39.86 197.139 41.951C195.048 44.042 192.498 45.113 189.489 45.113C186.48 45.113 183.879 44.042 181.788 41.951ZM230.918 27.416C228.827 23.387 224.798 20.939 219.953 20.939C216.281 20.939 213.17 22.214 210.569 24.815C208.019 27.365 206.744 30.527 206.744 34.25C206.744 37.973 208.019 41.135 210.569 43.736C213.17 46.286 216.281 47.561 219.953 47.561C224.798 47.561 228.827 45.113 230.918 41.084V47H233.468V11.3H230.918V27.416ZM212.405 41.951C210.314 39.86 209.294 37.259 209.294 34.25C209.294 31.241 210.314 28.64 212.405 26.549C214.496 24.458 217.097 23.387 220.106 23.387C223.115 23.387 225.665 24.458 227.756 26.549C229.847 28.64 230.918 31.241 230.918 34.25C230.918 37.259 229.847 39.86 227.756 41.951C225.665 44.042 223.115 45.113 220.106 45.113C217.097 45.113 214.496 44.042 212.405 41.951ZM252.214 20.939C248.338 20.939 245.176 22.214 242.677 24.764C240.229 27.263 239.005 30.425 239.005 34.25C239.005 38.126 240.28 41.339 242.779 43.838C245.278 46.337 248.491 47.561 252.418 47.561C257.365 47.561 261.445 45.317 263.536 41.798L261.292 40.472C259.711 43.277 256.549 45.113 252.469 45.113C249.562 45.113 247.063 44.246 245.074 42.512C243.085 40.727 241.963 38.432 241.657 35.576H264.76C264.76 35.321 264.811 34.607 264.811 34.352C264.811 30.731 263.638 27.569 261.292 24.917C258.997 22.265 255.937 20.939 252.214 20.939ZM252.214 23.387C254.815 23.387 257.008 24.254 258.895 25.988C260.782 27.671 261.904 30.068 262.159 33.077H241.657C241.912 30.221 243.034 27.875 244.972 26.09C246.91 24.305 249.307 23.387 252.214 23.387Z" fill="#E9F1F7"/>
<path d="M122.073 20.939C118.197 20.939 115.035 22.214 112.536 24.764C110.088 27.263 108.864 30.425 108.864 34.25C108.864 38.126 110.139 41.339 112.638 43.838C115.137 46.337 118.35 47.561 122.277 47.561C127.224 47.561 131.304 45.317 133.395 41.798L131.151 40.472C129.57 43.277 126.408 45.113 122.328 45.113C119.421 45.113 116.922 44.246 114.933 42.512C112.944 40.727 111.822 38.432 111.516 35.576H134.619C134.619 35.321 134.67 34.607 134.67 34.352C134.67 30.731 133.497 27.569 131.151 24.917C128.856 22.265 125.796 20.939 122.073 20.939ZM122.073 23.387C124.674 23.387 126.867 24.254 128.754 25.988C130.641 27.671 131.763 30.068 132.018 33.077H111.516C111.771 30.221 112.893 27.875 114.831 26.09C116.769 24.305 119.166 23.387 122.073 23.387ZM271.945 28.181C271.945 25.274 274.597 23.387 278.065 23.387C280.972 23.387 283.573 24.764 284.593 27.263L286.735 26.039C285.307 22.928 282.145 20.939 278.065 20.939C275.515 20.939 273.424 21.653 271.792 23.03C270.211 24.407 269.395 26.141 269.395 28.181C269.395 33.536 274.954 34.607 279.391 35.678C282.451 36.341 284.848 37.82 284.848 40.319C284.848 43.379 282.094 45.113 278.269 45.113C274.444 45.113 271.741 43.43 270.772 40.625L268.579 41.9C269.854 45.317 273.373 47.561 278.269 47.561C283.726 47.561 287.398 44.552 287.398 40.319C287.398 34.862 281.839 33.74 277.402 32.771C274.342 32.006 271.945 30.68 271.945 28.181Z" fill="#131B23" fill-opacity="0.9"/>
<path d="M326.752 6.2H324.712L304.312 52.1H306.352L326.752 6.2ZM331.666 21.602L349.159 29.15L331.666 36.698V39.554L352.066 30.476V27.824L331.666 18.746V21.602Z" fill="#E9F1F7" fill-opacity="0.9"/>
<defs>
<filter id="filter0_dii_48_28" x="95.7635" y="0.560059" width="50.7676" height="65.92" filterUnits="userSpaceOnUse" color-interpolation-filters="sRGB">
<feFlood flood-opacity="0" result="BackgroundImageFix"/>
<feColorMatrix in="SourceAlpha" type="matrix" values="0 0 0 0 0 0 0 0 0 0 0 0 0 0 0 0 0 0 127 0" result="hardAlpha"/>
<feOffset dy="4"/>
<feGaussianBlur stdDeviation="5"/>
<feColorMatrix type="matrix" values="0 0 0 0 0.521569 0 0 0 0 0.537255 0 0 0 0 0.545098 0 0 0 0.4 0"/>
<feBlend mode="normal" in2="BackgroundImageFix" result="effect1_dropShadow_48_28"/>
<feBlend mode="normal" in="SourceGraphic" in2="effect1_dropShadow_48_28" result="shape"/>
<feColorMatrix in="SourceAlpha" type="matrix" values="0 0 0 0 0 0 0 0 0 0 0 0 0 0 0 0 0 0 127 0" result="hardAlpha"/>
<feOffset dx="-1" dy="-1"/>
<feGaussianBlur stdDeviation="1"/>
<feComposite in2="hardAlpha" operator="arithmetic" k2="-1" k3="1"/>
<feColorMatrix type="matrix" values="0 0 0 0 0.521569 0 0 0 0 0.537255 0 0 0 0 0.545098 0 0 0 0.5 0"/>
<feBlend mode="normal" in2="shape" result="effect2_innerShadow_48_28"/>
<feColorMatrix in="SourceAlpha" type="matrix" values="0 0 0 0 0 0 0 0 0 0 0 0 0 0 0 0 0 0 127 0" result="hardAlpha"/>
<feOffset dx="1" dy="1"/>
<feGaussianBlur stdDeviation="1"/>
<feComposite in2="hardAlpha" operator="arithmetic" k2="-1" k3="1"/>
<feColorMatrix type="matrix" values="0 0 0 0 1 0 0 0 0 1 0 0 0 0 1 0 0 0 0.3 0"/>
<feBlend mode="normal" in2="effect2_innerShadow_48_28" result="effect3_innerShadow_48_28"/>
</filter>
<filter id="filter1_dii_48_28" x="257.293" y="0.560059" width="43.0757" height="65.92" filterUnits="userSpaceOnUse" color-interpolation-filters="sRGB">
<feFlood flood-opacity="0" result="BackgroundImageFix"/>
<feColorMatrix in="SourceAlpha" type="matrix" values="0 0 0 0 0 0 0 0 0 0 0 0 0 0 0 0 0 0 127 0" result="hardAlpha"/>
<feOffset dy="4"/>
<feGaussianBlur stdDeviation="5"/>
<feColorMatrix type="matrix" values="0 0 0 0 0.521569 0 0 0 0 0.537255 0 0 0 0 0.545098 0 0 0 0.4 0"/>
<feBlend mode="normal" in2="BackgroundImageFix" result="effect1_dropShadow_48_28"/>
<feBlend mode="normal" in="SourceGraphic" in2="effect1_dropShadow_48_28" result="shape"/>
<feColorMatrix in="SourceAlpha" type="matrix" values="0 0 0 0 0 0 0 0 0 0 0 0 0 0 0 0 0 0 127 0" result="hardAlpha"/>
<feOffset dx="-1" dy="-1"/>
<feGaussianBlur stdDeviation="1"/>
<feComposite in2="hardAlpha" operator="arithmetic" k2="-1" k3="1"/>
<feColorMatrix type="matrix" values="0 0 0 0 0.521569 0 0 0 0 0.537255 0 0 0 0 0.545098 0 0 0 0.5 0"/>
<feBlend mode="normal" in2="shape" result="effect2_innerShadow_48_28"/>
<feColorMatrix in="SourceAlpha" type="matrix" values="0 0 0 0 0 0 0 0 0 0 0 0 0 0 0 0 0 0 127 0" result="hardAlpha"/>
<feOffset dx="1" dy="1"/>
<feGaussianBlur stdDeviation="1"/>
<feComposite in2="hardAlpha" operator="arithmetic" k2="-1" k3="1"/>
<feColorMatrix type="matrix" values="0 0 0 0 1 0 0 0 0 1 0 0 0 0 1 0 0 0 0.3 0"/>
<feBlend mode="normal" in2="effect2_innerShadow_48_28" result="effect3_innerShadow_48_28"/>
</filter>
</defs>
</svg>
